<svg width="185" height="41" viewBox="0 0 185 41" fill="none" xmlns="http://www.w3.org/2000/svg">
<path d="M59.908 29L52.914 20.914V29H49.95V10.93H52.914V19.172L59.934 10.93H63.652L55.8 19.978L63.782 29H59.908ZM65.6751 21.772C65.6751 20.3333 65.9698 19.0593 66.5591 17.95C67.1658 16.8407 67.9805 15.9827 69.0031 15.376C70.0431 14.752 71.1871 14.44 72.4351 14.44C73.5618 14.44 74.5411 14.6653 75.3731 15.116C76.2225 15.5493 76.8985 16.0953 77.4011 16.754V14.674H80.3911V29H77.4011V26.868C76.8985 27.544 76.2138 28.1073 75.3471 28.558C74.4805 29.0087 73.4925 29.234 72.3831 29.234C71.1525 29.234 70.0258 28.922 69.0031 28.298C67.9805 27.6567 67.1658 26.7727 66.5591 25.646C65.9698 24.502 65.6751 23.2107 65.6751 21.772ZM77.4011 21.824C77.4011 20.836 77.1931 19.978 76.7771 19.25C76.3785 18.522 75.8498 17.9673 75.1911 17.586C74.5325 17.2047 73.8218 17.014 73.0591 17.014C72.2965 17.014 71.5858 17.2047 70.9271 17.586C70.2685 17.95 69.7311 18.496 69.3151 19.224C68.9165 19.9347 68.7171 20.784 68.7171 21.772C68.7171 22.76 68.9165 23.6267 69.3151 24.372C69.7311 25.1173 70.2685 25.6893 70.9271 26.088C71.6031 26.4693 72.3138 26.66 73.0591 26.66C73.8218 26.66 74.5325 26.4693 75.1911 26.088C75.8498 25.7067 76.3785 25.152 76.7771 24.424C77.1931 23.6787 77.4011 22.812 77.4011 21.824ZM101.886 14.44C103.013 14.44 104.018 14.674 104.902 15.142C105.804 15.61 106.506 16.3033 107.008 17.222C107.528 18.1407 107.788 19.25 107.788 20.55V29H104.85V20.992C104.85 19.7093 104.53 18.73 103.888 18.054C103.247 17.3607 102.372 17.014 101.262 17.014C100.153 17.014 99.2689 17.3607 98.6102 18.054C97.9689 18.73 97.6482 19.7093 97.6482 20.992V29H94.7102V20.992C94.7102 19.7093 94.3896 18.73 93.7482 18.054C93.1069 17.3607 92.2316 17.014 91.1222 17.014C90.0129 17.014 89.1289 17.3607 88.4702 18.054C87.8289 18.73 87.5082 19.7093 87.5082 20.992V29H84.5442V14.674H87.5082V16.312C87.9936 15.7227 88.6089 15.2633 89.3542 14.934C90.0996 14.6047 90.8969 14.44 91.7462 14.44C92.8902 14.44 93.9129 14.6827 94.8142 15.168C95.7156 15.6533 96.4089 16.3553 96.8942 17.274C97.3276 16.4073 98.0036 15.7227 98.9222 15.22C99.8409 14.7 100.829 14.44 101.886 14.44ZM110.832 21.772C110.832 20.3333 111.127 19.0593 111.716 17.95C112.323 16.8407 113.137 15.9827 114.16 15.376C115.2 14.752 116.344 14.44 117.592 14.44C118.719 14.44 119.698 14.6653 120.53 15.116C121.379 15.5493 122.055 16.0953 122.558 16.754V14.674H125.548V29H122.558V26.868C122.055 27.544 121.371 28.1073 120.504 28.558C119.637 29.0087 118.649 29.234 117.54 29.234C116.309 29.234 115.183 28.922 114.16 28.298C113.137 27.6567 112.323 26.7727 111.716 25.646C111.127 24.502 110.832 23.2107 110.832 21.772ZM122.558 21.824C122.558 20.836 122.35 19.978 121.934 19.25C121.535 18.522 121.007 17.9673 120.348 17.586C119.689 17.2047 118.979 17.014 118.216 17.014C117.453 17.014 116.743 17.2047 116.084 17.586C115.425 17.95 114.888 18.496 114.472 19.224C114.073 19.9347 113.874 20.784 113.874 21.772C113.874 22.76 114.073 23.6267 114.472 24.372C114.888 25.1173 115.425 25.6893 116.084 26.088C116.76 26.4693 117.471 26.66 118.216 26.66C118.979 26.66 119.689 26.4693 120.348 26.088C121.007 25.7067 121.535 25.152 121.934 24.424C122.35 23.6787 122.558 22.812 122.558 21.824ZM132.665 9.76V29H129.701V9.76H132.665ZM135.828 21.772C135.828 20.3333 136.123 19.0593 136.712 17.95C137.319 16.8407 138.134 15.9827 139.156 15.376C140.196 14.752 141.34 14.44 142.588 14.44C143.715 14.44 144.694 14.6653 145.526 15.116C146.376 15.5493 147.052 16.0953 147.554 16.754V14.674H150.544V29H147.554V26.868C147.052 27.544 146.367 28.1073 145.5 28.558C144.634 29.0087 143.646 29.234 142.536 29.234C141.306 29.234 140.179 28.922 139.156 28.298C138.134 27.6567 137.319 26.7727 136.712 25.646C136.123 24.502 135.828 23.2107 135.828 21.772ZM147.554 21.824C147.554 20.836 147.346 19.978 146.93 19.25C146.532 18.522 146.003 17.9673 145.344 17.586C144.686 17.2047 143.975 17.014 143.212 17.014C142.45 17.014 141.739 17.2047 141.08 17.586C140.422 17.95 139.884 18.496 139.468 19.224C139.07 19.9347 138.87 20.784 138.87 21.772C138.87 22.76 139.07 23.6267 139.468 24.372C139.884 25.1173 140.422 25.6893 141.08 26.088C141.756 26.4693 142.467 26.66 143.212 26.66C143.975 26.66 144.686 26.4693 145.344 26.088C146.003 25.7067 146.532 25.152 146.93 24.424C147.346 23.6787 147.554 22.812 147.554 21.824ZM160.365 21.85L166.969 29H162.965L157.661 22.838V29H154.697V9.76H157.661V20.94L162.861 14.674H166.969L160.365 21.85Z" fill="#26283B"/>
<path d="M169.098 29.098C168.809 29.098 168.566 29 168.37 28.804C168.174 28.608 168.076 28.3653 168.076 28.076C168.076 27.7867 168.174 27.544 168.37 27.348C168.566 27.152 168.809 27.054 169.098 27.054C169.378 27.054 169.616 27.152 169.812 27.348C170.008 27.544 170.106 27.7867 170.106 28.076C170.106 28.3653 170.008 28.608 169.812 28.804C169.616 29 169.378 29.098 169.098 29.098ZM174.953 27.572L177.137 21.286H178.831L175.891 29H173.987L171.061 21.286H172.769L174.953 27.572ZM179.757 20.25V18.794H182.669V29H181.059V20.25H179.757Z" fill="#708090"/>
<path d="M20.0003 38.7163C18.8837 38.7163 17.7503 38.4663 16.867 37.9497L7.70039 32.6663C3.96705 30.1497 3.73372 29.7663 3.73372 25.8163V16.183C3.73372 12.233 3.95039 11.8497 7.61705 9.36634L16.8503 4.03301C18.6003 3.01634 21.3503 3.01634 23.1003 4.03301L32.3003 9.33301C36.0337 11.8497 36.267 12.233 36.267 16.183V25.7997C36.267 29.7497 36.0503 30.133 32.3837 32.6163L23.1503 37.9497C22.2503 38.4663 21.117 38.7163 20.0003 38.7163ZM20.0003 5.78301C19.3003 5.78301 18.617 5.91634 18.1337 6.19967L8.96705 11.4997C6.25039 13.333 6.25039 13.333 6.25039 16.183V25.7997C6.25039 28.6497 6.25039 28.6497 9.03372 30.533L18.1337 35.783C19.117 36.3497 20.9003 36.3497 21.8837 35.783L31.0503 30.483C33.7503 28.6497 33.7503 28.6497 33.7503 25.7997V16.183C33.7503 13.333 33.7503 13.333 30.967 11.4497L21.867 6.19967C21.3837 5.91634 20.7003 5.78301 20.0003 5.78301Z" fill="#26283B"/>
<path d="M20 27.25C16.55 27.25 13.75 24.45 13.75 21C13.75 17.55 16.55 14.75 20 14.75C23.45 14.75 26.25 17.55 26.25 21C26.25 24.45 23.45 27.25 20 27.25ZM20 17.25C17.9333 17.25 16.25 18.9333 16.25 21C16.25 23.0667 17.9333 24.75 20 24.75C22.0667 24.75 23.75 23.0667 23.75 21C23.75 18.9333 22.0667 17.25 20 17.25Z" fill="#26283B"/>
</svg>
