<svg width="23" height="24" viewBox="0 0 23 24" fill="none" xmlns="http://www.w3.org/2000/svg">
<path d="M14.3756 22.7498H8.62561C7.36061 22.7498 6.30644 22.6198 5.41519 22.3398C5.08936 22.2398 4.87852 21.9098 4.89769 21.5598C5.13727 18.5698 8.04102 16.2197 11.5006 16.2197C14.9602 16.2197 17.8543 18.5598 18.1035 21.5598C18.1322 21.9198 17.9214 22.2398 17.586 22.3398C16.6947 22.6198 15.6406 22.7498 14.3756 22.7498ZM6.44061 21.0598C7.07311 21.1898 7.79186 21.2498 8.62561 21.2498H14.3756C15.2093 21.2498 15.9281 21.1898 16.5606 21.0598C16.0527 19.1398 13.9539 17.7197 11.5006 17.7197C9.04727 17.7197 6.94852 19.1398 6.44061 21.0598Z" fill="#9197B3"/>
<path d="M14.3748 2H8.62484C3.83317 2 1.9165 4 1.9165 9V15C1.9165 18.78 3.009 20.85 5.61567 21.62C5.8265 19.02 8.38525 16.97 11.4998 16.97C14.6144 16.97 17.1732 19.02 17.384 21.62C19.9907 20.85 21.0832 18.78 21.0832 15V9C21.0832 4 19.1665 2 14.3748 2ZM11.4998 14.17C9.60234 14.17 8.069 12.56 8.069 10.58C8.069 8.60002 9.60234 7 11.4998 7C13.3973 7 14.9307 8.60002 14.9307 10.58C14.9307 12.56 13.3973 14.17 11.4998 14.17Z" stroke="#9197B3" stroke-width="1.5" stroke-linecap="round" stroke-linejoin="round"/>
<path d="M11.4997 14.92C9.20926 14.92 7.3501 12.97 7.3501 10.58C7.3501 8.19002 9.20926 6.25 11.4997 6.25C13.7901 6.25 15.6492 8.19002 15.6492 10.58C15.6492 12.97 13.7901 14.92 11.4997 14.92ZM11.4997 7.75C10.0047 7.75 8.7876 9.02002 8.7876 10.58C8.7876 12.15 10.0047 13.42 11.4997 13.42C12.9947 13.42 14.2117 12.15 14.2117 10.58C14.2117 9.02002 12.9947 7.75 11.4997 7.75Z" fill="#9197B3"/>
</svg>
