<svg width="18" height="19" viewBox="0 0 18 19" fill="none" xmlns="http://www.w3.org/2000/svg">
<g clip-path="url(#clip0_22_1263)">
<path d="M5.25 0.5H3C2.20435 0.5 1.44129 0.816071 0.87868 1.37868C0.316071 1.94129 0 2.70435 0 3.5L0 5.75C0 6.54565 0.316071 7.30871 0.87868 7.87132C1.44129 8.43393 2.20435 8.75 3 8.75H5.25C6.04565 8.75 6.80871 8.43393 7.37132 7.87132C7.93393 7.30871 8.25 6.54565 8.25 5.75V3.5C8.25 2.70435 7.93393 1.94129 7.37132 1.37868C6.80871 0.816071 6.04565 0.5 5.25 0.5V0.5ZM6.75 5.75C6.75 6.14782 6.59196 6.52936 6.31066 6.81066C6.02936 7.09196 5.64782 7.25 5.25 7.25H3C2.60218 7.25 2.22064 7.09196 1.93934 6.81066C1.65804 6.52936 1.5 6.14782 1.5 5.75V3.5C1.5 3.10218 1.65804 2.72064 1.93934 2.43934C2.22064 2.15804 2.60218 2 3 2H5.25C5.64782 2 6.02936 2.15804 6.31066 2.43934C6.59196 2.72064 6.75 3.10218 6.75 3.5V5.75Z" fill="#9197B3"/>
<path d="M15 0.5H12.75C11.9543 0.5 11.1913 0.816071 10.6287 1.37868C10.0661 1.94129 9.75 2.70435 9.75 3.5V5.75C9.75 6.54565 10.0661 7.30872 10.6287 7.87133C11.1913 8.43394 11.9543 8.75001 12.75 8.75001H15C15.7956 8.75001 16.5587 8.43394 17.1213 7.87133C17.6839 7.30872 18 6.54565 18 5.75V3.5C18 2.70435 17.6839 1.94129 17.1213 1.37868C16.5587 0.816071 15.7956 0.5 15 0.5V0.5ZM16.5 5.75C16.5 6.14783 16.342 6.52936 16.0607 6.81066C15.7793 7.09197 15.3978 7.25 15 7.25H12.75C12.3522 7.25 11.9706 7.09197 11.6893 6.81066C11.408 6.52936 11.25 6.14783 11.25 5.75V3.5C11.25 3.10218 11.408 2.72065 11.6893 2.43934C11.9706 2.15804 12.3522 2 12.75 2H15C15.3978 2 15.7793 2.15804 16.0607 2.43934C16.342 2.72065 16.5 3.10218 16.5 3.5V5.75Z" fill="#9197B3"/>
<path d="M5.25 10.25H3C2.20435 10.25 1.44129 10.5661 0.87868 11.1287C0.316071 11.6913 0 12.4544 0 13.25L0 15.5C0 16.2957 0.316071 17.0587 0.87868 17.6213C1.44129 18.1839 2.20435 18.5 3 18.5H5.25C6.04565 18.5 6.80871 18.1839 7.37132 17.6213C7.93393 17.0587 8.25 16.2957 8.25 15.5V13.25C8.25 12.4544 7.93393 11.6913 7.37132 11.1287C6.80871 10.5661 6.04565 10.25 5.25 10.25ZM6.75 15.5C6.75 15.8978 6.59196 16.2794 6.31066 16.5607C6.02936 16.842 5.64782 17 5.25 17H3C2.60218 17 2.22064 16.842 1.93934 16.5607C1.65804 16.2794 1.5 15.8978 1.5 15.5V13.25C1.5 12.8522 1.65804 12.4706 1.93934 12.1893C2.22064 11.908 2.60218 11.75 3 11.75H5.25C5.64782 11.75 6.02936 11.908 6.31066 12.1893C6.59196 12.4706 6.75 12.8522 6.75 13.25V15.5Z" fill="#9197B3"/>
<path d="M15 10.25H12.75C11.9543 10.25 11.1913 10.5661 10.6287 11.1287C10.0661 11.6913 9.75 12.4544 9.75 13.25V15.5C9.75 16.2957 10.0661 17.0587 10.6287 17.6213C11.1913 18.1839 11.9543 18.5 12.75 18.5H15C15.7956 18.5 16.5587 18.1839 17.1213 17.6213C17.6839 17.0587 18 16.2957 18 15.5V13.25C18 12.4544 17.6839 11.6913 17.1213 11.1287C16.5587 10.5661 15.7956 10.25 15 10.25ZM16.5 15.5C16.5 15.8978 16.342 16.2794 16.0607 16.5607C15.7793 16.842 15.3978 17 15 17H12.75C12.3522 17 11.9706 16.842 11.6893 16.5607C11.408 16.2794 11.25 15.8978 11.25 15.5V13.25C11.25 12.8522 11.408 12.4706 11.6893 12.1893C11.9706 11.908 12.3522 11.75 12.75 11.75H15C15.3978 11.75 15.7793 11.908 16.0607 12.1893C16.342 12.4706 16.5 12.8522 16.5 13.25V15.5Z" fill="#9197B3"/>
</g>
<defs>
<clipPath id="clip0_22_1263">
<rect width="18" height="18" fill="white" transform="translate(0 0.5)"/>
</clipPath>
</defs>
</svg>
