<svg width="20" height="21" viewBox="0 0 20 21" fill="none" xmlns="http://www.w3.org/2000/svg">
<g clip-path="url(#clip0_2_1885)">
<path d="M15.4845 2.2839L10.2637 0.543067C10.0927 0.486133 9.90793 0.486133 9.73699 0.543067L4.51533 2.2839C3.6854 2.55978 2.96351 3.09015 2.45219 3.79968C1.94087 4.50922 1.66613 5.36183 1.66699 6.2364V10.5006C1.66699 16.8031 9.33366 20.2839 9.66199 20.4289C9.76851 20.4762 9.88377 20.5007 10.0003 20.5007C10.1169 20.5007 10.2321 20.4762 10.3387 20.4289C10.667 20.2839 18.3337 16.8031 18.3337 10.5006V6.2364C18.3345 5.36172 18.0596 4.50904 17.5481 3.79949C17.0366 3.08995 16.3146 2.55963 15.4845 2.2839V2.2839ZM16.667 10.5006C16.667 15.0464 11.4012 18.0281 10.0003 18.7414C8.59783 18.0306 3.33366 15.0581 3.33366 10.5006V6.2364C3.33365 5.71173 3.49871 5.20036 3.80546 4.77471C4.11221 4.34906 4.5451 4.0307 5.04283 3.86473L10.0003 2.21223L14.957 3.86473C15.4549 4.03056 15.8879 4.34886 16.1949 4.77452C16.5018 5.20018 16.6669 5.71163 16.667 6.2364V10.5006Z" fill="#9197B3"/>
</g>
<defs>
<clipPath id="clip0_2_1885">
<rect width="20" height="20" fill="white" transform="translate(0 0.5)"/>
</clipPath>
</defs>
</svg>
