<svg width="24" height="24" viewBox="0 0 24 24" fill="none" xmlns="http://www.w3.org/2000/svg">
<path d="M15 22.75H9C3.57 22.75 1.25 20.43 1.25 15V9C1.25 3.57 3.57 1.25 9 1.25H15C20.43 1.25 22.75 3.57 22.75 9V15C22.75 20.43 20.43 22.75 15 22.75ZM9 2.75C4.39 2.75 2.75 4.39 2.75 9V15C2.75 19.61 4.39 21.25 9 21.25H15C19.61 21.25 21.25 19.61 21.25 15V9C21.25 4.39 19.61 2.75 15 2.75H9Z" fill="#9197B3"/>
<g clip-path="url(#clip0_2_1849)">
<path d="M7.9999 9.00006C7.80278 9.00058 7.60751 8.962 7.42539 8.88656C7.24327 8.81112 7.07792 8.70032 6.9389 8.56056L6.1669 7.87356C6.06785 7.78524 6.00793 7.66119 6.00033 7.5287C5.99274 7.3962 6.03809 7.26612 6.1264 7.16706C6.21472 7.068 6.33877 7.00808 6.47127 7.00049C6.60376 6.99289 6.73385 7.03824 6.8329 7.12656L7.6254 7.83356C7.67077 7.88451 7.72609 7.92563 7.78794 7.9544C7.8498 7.98317 7.91689 7.99898 7.98508 8.00086C8.05328 8.00273 8.12113 7.99063 8.18448 7.9653C8.24782 7.93996 8.30531 7.90194 8.3534 7.85356L10.1554 6.13806C10.2523 6.05179 10.3789 6.00657 10.5086 6.01193C10.6382 6.0173 10.7606 6.07284 10.8501 6.16682C10.9395 6.26079 10.9889 6.38585 10.9879 6.51558C10.9868 6.64531 10.9354 6.76955 10.8444 6.86206L9.0499 8.56906C8.91179 8.70637 8.74797 8.81511 8.5678 8.88906C8.38763 8.96302 8.19466 9.00073 7.9999 9.00006ZM17.9999 8.00006C17.9999 7.86745 17.9472 7.74027 17.8535 7.6465C17.7597 7.55274 17.6325 7.50006 17.4999 7.50006H12.4999C12.3673 7.50006 12.2401 7.55274 12.1464 7.6465C12.0526 7.74027 11.9999 7.86745 11.9999 8.00006C11.9999 8.13267 12.0526 8.25984 12.1464 8.35361C12.2401 8.44738 12.3673 8.50006 12.4999 8.50006H17.4999C17.6325 8.50006 17.7597 8.44738 17.8535 8.35361C17.9472 8.25984 17.9999 8.13267 17.9999 8.00006ZM9.0499 12.5691L10.8444 10.8621C10.8945 10.8175 10.9351 10.7633 10.9638 10.7027C10.9925 10.6421 11.0087 10.5763 11.0115 10.5093C11.0143 10.4423 11.0035 10.3754 10.9799 10.3126C10.9563 10.2499 10.9204 10.1925 10.8741 10.1439C10.8279 10.0953 10.7724 10.0566 10.7109 10.0299C10.6493 10.0032 10.5831 9.98917 10.516 9.98863C10.449 9.98808 10.3825 10.001 10.3205 10.0267C10.2586 10.0524 10.2024 10.0902 10.1554 10.1381L8.3554 11.8536C8.26022 11.9446 8.1336 11.9954 8.0019 11.9954C7.87021 11.9954 7.74359 11.9446 7.6484 11.8536L6.8534 11.0611C6.7591 10.97 6.6328 10.9196 6.5017 10.9207C6.3706 10.9219 6.2452 10.9744 6.15249 11.0671C6.05979 11.1599 6.00721 11.2853 6.00607 11.4164C6.00493 11.5475 6.05532 11.6738 6.1464 11.7681L6.9389 12.5606C7.21874 12.8405 7.59786 12.9984 7.99365 13C8.38944 13.0016 8.76982 12.8467 9.0519 12.5691H9.0499ZM17.9999 12.0001C17.9999 11.8675 17.9472 11.7403 17.8535 11.6465C17.7597 11.5527 17.6325 11.5001 17.4999 11.5001H12.4999C12.3673 11.5001 12.2401 11.5527 12.1464 11.6465C12.0526 11.7403 11.9999 11.8675 11.9999 12.0001C11.9999 12.1327 12.0526 12.2598 12.1464 12.3536C12.2401 12.4474 12.3673 12.5001 12.4999 12.5001H17.4999C17.6325 12.5001 17.7597 12.4474 17.8535 12.3536C17.9472 12.2598 17.9999 12.1327 17.9999 12.0001ZM9.0499 16.5691L10.8424 14.8621C10.8925 14.8175 10.9331 14.7633 10.9618 14.7027C10.9905 14.6421 11.0067 14.5763 11.0095 14.5093C11.0123 14.4423 11.0015 14.3754 10.9779 14.3126C10.9543 14.2499 10.9184 14.1925 10.8721 14.1439C10.8259 14.0953 10.7704 14.0566 10.7089 14.0299C10.6473 14.0032 10.5811 13.9892 10.514 13.9886C10.447 13.9881 10.3805 14.001 10.3185 14.0267C10.2566 14.0524 10.2004 14.0902 10.1534 14.1381L8.3534 15.8536C8.30531 15.9019 8.24782 15.94 8.18448 15.9653C8.12113 15.9906 8.05328 16.0027 7.98508 16.0009C7.91689 15.999 7.8498 15.9832 7.78794 15.9544C7.72609 15.9256 7.67077 15.8845 7.6254 15.8336L6.8329 15.1266C6.73385 15.0382 6.60376 14.9929 6.47127 15.0005C6.33877 15.0081 6.21472 15.068 6.1264 15.1671C6.03809 15.2661 5.99274 15.3962 6.00033 15.5287C6.00793 15.6612 6.06785 15.7852 6.1669 15.8736L6.9389 16.5606C7.21874 16.8405 7.59786 16.9984 7.99365 17C8.38944 17.0016 8.76982 16.8467 9.0519 16.5691H9.0499ZM17.9999 16.0001C17.9999 15.8675 17.9472 15.7403 17.8535 15.6465C17.7597 15.5527 17.6325 15.5001 17.4999 15.5001H12.4999C12.3673 15.5001 12.2401 15.5527 12.1464 15.6465C12.0526 15.7403 11.9999 15.8675 11.9999 16.0001C11.9999 16.1327 12.0526 16.2598 12.1464 16.3536C12.2401 16.4474 12.3673 16.5001 12.4999 16.5001H17.4999C17.6325 16.5001 17.7597 16.4474 17.8535 16.3536C17.9472 16.2598 17.9999 16.1327 17.9999 16.0001Z" fill="#9197B3"/>
</g>
<defs>
<clipPath id="clip0_2_1849">
<rect width="12" height="12" fill="white" transform="translate(6 6)"/>
</clipPath>
</defs>
</svg>
